<?xml version="1.0" encoding="UTF-8" standalone="no"?>
<!-- Created with Inkscape (http://www.inkscape.org/) -->

<svg
   xmlns:dc="http://purl.org/dc/elements/1.1/"
   xmlns:cc="http://creativecommons.org/ns#"
   xmlns:rdf="http://www.w3.org/1999/02/22-rdf-syntax-ns#"
   xmlns:svg="http://www.w3.org/2000/svg"
   xmlns="http://www.w3.org/2000/svg"
   xmlns:sodipodi="http://sodipodi.sourceforge.net/DTD/sodipodi-0.dtd"
   xmlns:inkscape="http://www.inkscape.org/namespaces/inkscape"
   width="480mm"
   height="270mm"
   viewBox="0 0 1700.7874 956.6929"
   id="svg2"
   version="1.1"
   inkscape:version="0.91 r13725"
   sodipodi:docname="grace.svg">
  <defs
     id="defs4">
    <inkscape:path-effect
       effect="spiro"
       id="path-effect4155"
       is_visible="true" />
  </defs>
  <sodipodi:namedview
     id="base"
     pagecolor="#ffffff"
     bordercolor="#666666"
     borderopacity="1.0"
     inkscape:pageopacity="0.0"
     inkscape:pageshadow="2"
     inkscape:zoom="1.0224689"
     inkscape:cx="1268.3108"
     inkscape:cy="603.19378"
     inkscape:document-units="px"
     inkscape:current-layer="layer1"
     showgrid="false"
     fit-margin-top="0"
     fit-margin-left="0"
     fit-margin-right="0"
     fit-margin-bottom="0"
     inkscape:window-width="1366"
     inkscape:window-height="705"
     inkscape:window-x="-8"
     inkscape:window-y="-8"
     inkscape:window-maximized="1"
     inkscape:snap-to-guides="false"
     inkscape:snap-grids="false"
     inkscape:snap-others="false"
     inkscape:snap-nodes="false"
     inkscape:snap-global="false" />
  <metadata
     id="metadata7">
    <rdf:RDF>
      <cc:Work
         rdf:about="">
        <dc:format>image/svg+xml</dc:format>
        <dc:type
           rdf:resource="http://purl.org/dc/dcmitype/StillImage" />
        <dc:title></dc:title>
      </cc:Work>
    </rdf:RDF>
  </metadata>
  <g
     inkscape:label="Layer 1"
     inkscape:groupmode="layer"
     id="layer1"
     transform="translate(0,932.34721)">
    <g
       style="font-style:normal;font-variant:normal;font-weight:normal;font-stretch:normal;font-size:18px;line-height:125%;font-family:Calligraffiti;-inkscape-font-specification:'Calligraffiti, Normal';text-align:start;letter-spacing:0px;word-spacing:0px;writing-mode:lr-tb;text-anchor:start;fill:#ff8200;fill-opacity:1;stroke:none;stroke-width:1px;stroke-linecap:butt;stroke-linejoin:miter;stroke-opacity:1"
       id="text4136"
       transform="matrix(37.419889,0,0,31.297784,80.334944,-839.86597)">
      <path
         d="m 15.75,3.8496094 q 0,0.035156 -0.01758,0.087891 -0.01758,0.035156 -0.03516,0.070312 -0.632813,0.9140625 -1.195313,1.8105469 -0.544922,0.8789062 -1.037109,1.7929687 -0.492188,0.9140625 -0.914063,1.8808594 -0.421875,0.9492186 -0.773437,2.0039066 -0.351563,1.019531 -0.597656,2.074219 -0.228516,1.037109 -0.457032,2.091796 -0.228515,1.054688 -0.492187,2.091797 -0.2636721,1.054688 -0.6503909,2.074219 -0.3515625,0.896484 -0.8085937,1.722656 -0.4570313,0.826172 -1.0898438,1.441406 -0.6152344,0.615235 -1.4414062,0.984375 -0.8261719,0.369141 -1.8984375,0.369141 -0.9140625,0 -1.7050781,-0.298828 Q 1.8457031,23.765625 1.265625,23.220703 0.66796875,22.693359 0.33398438,21.9375 0,21.181641 0,20.25 0,19.300781 0.29882813,18.333984 0.58007812,17.367187 1.0898437,16.470703 q 0.5097657,-0.878906 1.2128907,-1.617187 0.6855469,-0.720703 1.5117187,-1.177735 0.1054688,-0.03516 0.140625,-0.03516 0.1054688,0 0.1757813,0.07031 0.087891,0.08789 0.087891,0.193359 0,0.140625 -0.140625,0.228516 -0.1933594,0.140625 -0.3691406,0.263671 -0.1757813,0.123047 -0.3691406,0.263672 -0.7734375,0.650391 -1.3183594,1.494141 -0.5625,0.861328 -0.8964844,1.810547 -0.17578125,0.509765 -0.28125,1.037109 -0.10546875,0.544922 -0.10546875,1.107422 0,0.808594 0.26367185,1.441406 0.2636719,0.632813 0.7382813,1.054688 0.4746094,0.439453 1.1425781,0.667968 0.6503906,0.228516 1.4414062,0.228516 0.4042969,0 0.7910157,-0.07031 0.4042968,-0.07031 0.7734375,-0.246094 0.7910156,-0.333985 1.3886718,-1.072266 0.5976563,-0.720703 1.0546876,-1.669922 0.4570312,-0.949218 0.7910156,-2.05664 0.3339844,-1.107422 0.5800781,-2.197266 0.2636719,-1.089844 0.4570306,-2.091797 0.19336,-1.001953 0.386719,-1.757812 -0.263672,0.316406 -0.5800777,0.65039 -0.2988281,0.316407 -0.6679688,0.580079 -0.3515625,0.246093 -0.7558593,0.404296 -0.3867188,0.175782 -0.8261719,0.175782 -0.1054688,0 -0.2109375,-0.01758 -0.1054688,0 -0.1933594,-0.01758 Q 6.5917969,13.957031 6.0644531,13.570313 5.5371094,13.166016 5.1855469,12.621094 4.8339844,12.076172 4.6582031,11.425781 4.5,10.757813 4.5,10.072266 4.5,9.984375 4.5,9.9316406 4.5,9.8613286 4.517578,9.7734375 4.605469,8.015625 5.1503905,6.3984375 5.6953125,4.78125 6.6972656,3.3222656 6.890625,3.0585938 7.0839844,2.7949219 7.2949219,2.5136719 7.5234375,2.2675781 7.875,1.8984375 8.3144531,1.6171875 8.7714844,1.3359375 9.2636719,1.1425781 9.7558594,0.93164063 10.265625,0.80859375 10.775391,0.66796875 11.267578,0.58007812 12.269531,0.421875 13.236328,0.33398438 14.203125,0.22851563 15.1875,0 l 0.03516,0 q 0.263672,0 0.263672,0.28125 0,0.17578125 -0.175781,0.22851562 -0.246094,0.10546875 -0.544922,0.15820313 -0.298828,0.0527344 -0.5625,0.10546875 Q 13.5,0.9140625 12.779297,1.0019531 12.076172,1.0722656 11.373047,1.2128906 10.423828,1.40625 9.5800781,1.7402344 8.7363281,2.0742188 8.0859375,2.8125 7.4707031,3.4980469 6.9609375,4.359375 6.46875,5.2207031 6.1171875,6.1699219 5.765625,7.1191406 5.5722656,8.1035156 5.3964844,9.0878906 5.3964844,10.019531 q 0,0.667969 0.1933593,1.353516 0.1933594,0.667969 0.703125,1.142578 0.2988282,0.28125 0.6679688,0.474609 0.3691406,0.175782 0.7734375,0.175782 0.421875,0 0.8789063,-0.298828 0.4570312,-0.298829 0.8964843,-0.773438 0.4570313,-0.492187 0.8789064,-1.089844 0.439453,-0.597656 0.808594,-1.1777341 0.36914,-0.5976563 0.667968,-1.125 0.298829,-0.5273438 0.492188,-0.8613282 0.298828,-0.5097656 0.632812,-1.0722656 0.333985,-0.5625 0.703125,-1.1074219 0.369141,-0.5449218 0.75586,-1.0546875 0.404297,-0.5097656 0.808594,-0.9316406 0.123046,-0.087891 0.210937,-0.087891 0.28125,0 0.28125,0.2636719 z"
         id="path4143"
         inkscape:connector-curvature="0"
         style="fill:#ff8200;fill-opacity:1"
         sodipodi:insensitive="true" />
      <path
         d="m 21.744141,6.6445312 q 0,0.140625 -0.01758,0.2636719 -0.01758,0.1230469 -0.05273,0.2636719 -0.03516,0.140625 -0.193359,0.140625 -0.07031,0 -0.210938,-0.052734 -0.123047,-0.070312 -0.123047,-0.140625 l 0.01758,-0.1582031 q 0,-0.1230469 -0.03516,-0.2988281 -0.01758,-0.1757813 -0.08789,-0.3339844 -0.05273,-0.1757813 -0.158204,-0.28125 -0.105468,-0.1230469 -0.28125,-0.1230469 -0.421875,0 -0.896484,0.2636719 -0.47461,0.2460933 -0.808595,0.4921871 Q 18.755859,6.7851562 18.509766,6.9960937 18.263672,7.2070312 18,7.453125 17.736328,7.6992187 17.507812,7.9277344 17.296875,8.15625 17.208984,8.296875 q -0.05273,0.070312 -0.140625,0.2636719 -0.07031,0.1757812 -0.158203,0.3867187 -0.07031,0.2109375 -0.158203,0.4042969 -0.07031,0.1933594 -0.123047,0.2988281 -0.351562,0.8437504 -0.685547,1.6875004 -0.316406,0.84375 -0.597656,1.705078 -0.140625,0.404297 -0.263672,0.826172 -0.105468,0.439453 -0.246093,0.84375 -0.07031,0.140625 -0.175782,0.140625 -0.07031,0 -0.210937,-0.08789 -0.123047,-0.07031 -0.123047,-0.140625 0,-0.193359 0.05273,-0.439453 0.07031,-0.246094 0.105469,-0.439453 0.228516,-1.142578 0.5625,-2.25 0.333984,-1.107422 0.773438,-2.1796877 0.158203,-0.421875 0.36914,-1.0019532 0.228516,-0.5800781 0.474609,-1.1777344 0.246094,-0.6152343 0.509766,-1.1425781 0.28125,-0.5449219 0.5625,-0.8613281 0.07031,-0.070312 0.158203,-0.070312 0.07031,0 0.19336,0.087891 0.140625,0.070312 0.140625,0.1582031 0,0.052734 -0.03516,0.1933594 -0.03516,0.1230469 -0.07031,0.28125 -0.03516,0.140625 -0.08789,0.28125 Q 18,6.1875 17.982422,6.2402344 q 0.5625,-0.421875 1.177734,-0.7558594 0.615235,-0.3339844 1.353516,-0.3339844 0.316406,0 0.544922,0.140625 0.228515,0.1230469 0.386718,0.3339844 0.158204,0.2109375 0.228516,0.4746094 0.07031,0.2636718 0.07031,0.5449218 z"
         id="path4145"
         inkscape:connector-curvature="0"
         style="fill:#ff8200;fill-opacity:1"
         sodipodi:insensitive="true" />
      <path
         d="m 28.96875,10.933594 q -0.457031,0.93164 -0.949219,1.669922 -0.492187,0.720703 -1.283203,1.40625 -0.386719,0.351562 -0.878906,0.351562 -0.263672,0 -0.509766,-0.158203 -0.228515,-0.140625 -0.316406,-0.404297 -0.03516,-0.08789 -0.05273,-0.246094 0,-0.158203 -0.01758,-0.333984 0,-0.175781 0,-0.333984 0.01758,-0.175782 0.01758,-0.28125 -0.615235,0.738281 -1.458985,1.248047 -0.826172,0.527343 -1.828125,0.527343 -0.05273,0 -0.158203,-0.03516 -0.08789,-0.03516 -0.140625,-0.05273 -0.404297,-0.19336 -0.615234,-0.615235 -0.19336,-0.421875 -0.19336,-0.84375 0,-0.580078 0.140625,-1.142578 0.158203,-0.580078 0.404297,-1.107422 0.263672,-0.544922 0.597656,-1.0371091 0.333985,-0.4921875 0.703125,-0.9316406 0.949219,-1.1777344 2.179688,-2.0390626 1.230469,-0.8789062 2.671875,-1.40625 0.01758,-0.017578 0.07031,-0.017578 0.123047,0 0.175782,0.087891 0.07031,0.087891 0.07031,0.1933594 0,0.1582031 -0.123047,0.2109375 -0.298828,0.1582031 -0.597656,0.2988281 -0.28125,0.1230469 -0.5625,0.28125 -1.951172,1.125 -3.287109,2.8828126 -0.263672,0.3515625 -0.544922,0.7910156 -0.28125,0.4394541 -0.509766,0.9140631 -0.228515,0.457031 -0.386719,0.949219 -0.140625,0.492186 -0.140625,0.949218 0,0.07031 0.01758,0.210938 0.01758,0.123047 0.05273,0.263672 0.03516,0.123047 0.105469,0.228515 0.08789,0.08789 0.193359,0.08789 0.509766,0 0.984375,-0.263672 0.492188,-0.263672 0.914063,-0.667969 0.421875,-0.404296 0.755859,-0.861328 0.333984,-0.457031 0.544922,-0.861328 0.404297,-0.738282 0.720703,-1.4765629 0.316406,-0.7558593 0.632812,-1.5117187 0.123047,-0.3164063 0.28125,-0.7382813 0.175782,-0.421875 0.333985,-0.7207031 0.07031,-0.1230469 0.228515,-0.1230469 0.123047,0 0.210938,0.070312 0.08789,0.070312 0.08789,0.1933594 l -0.01758,0.035156 Q 27.351562,7.2070312 27.175781,7.8574219 27,8.4902344 26.789062,9.1054688 q -0.08789,0.2460937 -0.210937,0.5449218 -0.123047,0.2988282 -0.193359,0.5097654 -0.03516,0.123047 -0.05273,0.246094 0,0.123047 -0.01758,0.246094 -0.05273,0.28125 -0.123047,0.5625 -0.05273,0.263672 -0.123047,0.544922 -0.08789,0.351562 -0.158203,0.720703 -0.05273,0.351562 -0.05273,0.720703 0,0.08789 0,0.158203 0,0.07031 0.01758,0.140625 0.123047,0 0.28125,-0.105469 0.175781,-0.105468 0.351562,-0.246093 0.175782,-0.158204 0.316407,-0.316407 0.158203,-0.158203 0.246093,-0.246093 0.527344,-0.5625 1.001954,-1.248047 0.123046,-0.140625 0.210937,-0.298828 0.105469,-0.175782 0.228516,-0.316407 0.05273,-0.08789 0.158203,-0.08789 0.123047,0 0.210937,0.08789 0.08789,0.08789 0.08789,0.210938 z"
         id="path4147"
         inkscape:connector-curvature="0"
         style="fill:#ff8200;fill-opacity:1"
         sodipodi:insensitive="true" />
      <path
         d="m 34.716797,5.3964844 q 0,0.1757812 -0.140625,0.2285156 -0.298828,0.140625 -0.597656,0.2636719 -0.28125,0.1230468 -0.5625,0.3164062 -1.177735,0.7207031 -2.021485,1.828125 -0.84375,1.1074219 -1.195312,2.4433599 -0.158203,0.685546 -0.158203,1.388671 0,0.246094 0.03516,0.544922 0.03516,0.28125 0.123047,0.5625 0.105468,0.28125 0.263672,0.509766 0.175781,0.228516 0.439453,0.333984 0.01758,0.01758 0.05273,0.01758 0.05273,0 0.07031,0 0.439453,0 0.808593,-0.228515 0.369141,-0.246094 0.667969,-0.544922 0.474609,-0.474609 0.896484,-1.089844 0.08789,-0.123047 0.175782,-0.246094 0.08789,-0.123046 0.175781,-0.228515 0.05273,-0.08789 0.158203,-0.08789 0.105469,0 0.193359,0.08789 0.105469,0.07031 0.105469,0.175781 0,0.03516 -0.08789,0.175781 -0.07031,0.140625 -0.175782,0.316407 -0.105468,0.158203 -0.210937,0.316406 -0.08789,0.140625 -0.123047,0.193359 -0.246094,0.369141 -0.527344,0.720703 -0.263672,0.351563 -0.597656,0.615235 -0.316406,0.263672 -0.720703,0.421875 -0.404297,0.158203 -0.878906,0.158203 -0.105469,0 -0.158204,-0.01758 -0.333984,-0.05274 -0.597656,-0.263672 Q 29.882809,14.115234 29.68945,13.816406 29.513669,13.535156 29.4082,13.21875 29.302734,12.884766 29.25,12.585938 29.21484,12.375 29.19727,12.164063 q -0.01758,-0.210938 -0.01758,-0.439454 0,-0.755859 0.175782,-1.441406 0.175781,-0.7734374 0.509765,-1.5292967 0.351563,-0.7558594 0.84375,-1.4062501 0.492188,-0.6503906 1.125,-1.1425781 0.632813,-0.5097656 1.40625,-0.8085937 0.263672,-0.1054688 0.597657,-0.1933594 0.333984,-0.1054688 0.632812,-0.1054688 0.08789,0 0.158203,0.1054688 0.08789,0.1054687 0.08789,0.1933594 z"
         id="path4149"
         inkscape:connector-curvature="0"
         style="fill:#ff8200;fill-opacity:1"
         sodipodi:insensitive="true" />
      <path
         d="m 41.308594,6.3457031 q 0,0.4394531 -0.210938,0.8789063 -0.210937,0.421875 -0.544922,0.8085937 -0.316406,0.3867188 -0.703125,0.703125 -0.386718,0.3164063 -0.720703,0.5449219 -0.509765,0.3515625 -1.072265,0.6503906 -0.544922,0.2988284 -1.195313,0.2988284 -0.140625,0 -0.316406,-0.03516 -0.158203,-0.03516 -0.158203,-0.2285161 0,-0.2460938 0.228515,-0.2988281 0.05273,-0.017578 0.123047,-0.017578 0.07031,0 0.140625,-0.017578 0.19336,-0.035156 0.369141,-0.1230469 0.193359,-0.087891 0.386719,-0.1933593 0.298828,-0.1933594 0.755859,-0.5449219 0.457031,-0.3515625 0.896484,-0.7734375 0.439453,-0.421875 0.738282,-0.8613282 0.316406,-0.4394531 0.316406,-0.8261718 0,-0.2460938 -0.263672,-0.2460938 -0.105469,0 -0.210938,0.035156 -0.105468,0.035156 -0.210937,0.070312 -0.84375,0.28125 -1.546875,0.8613281 -0.703125,0.5625 -1.212891,1.3183594 -0.509765,0.7558594 -0.808593,1.6171875 -0.28125,0.8613276 -0.28125,1.7226556 0,0.28125 0.03516,0.650392 0.05273,0.351562 0.175781,0.667968 0.140625,0.316407 0.369141,0.544922 0.228515,0.210938 0.597656,0.210938 0.140625,0 0.263672,-0.05273 0.123047,-0.03516 0.246094,-0.105469 0.474609,-0.263672 0.878906,-0.703125 0.404297,-0.457031 0.720703,-0.914063 0.08789,-0.105468 0.158203,-0.228515 0.08789,-0.123047 0.175781,-0.246094 0.05273,-0.08789 0.175782,-0.08789 0.105468,0 0.193359,0.07031 0.105469,0.07031 0.105469,0.193359 0,0.03516 -0.03516,0.105468 -0.210937,0.386719 -0.527343,0.861328 -0.316407,0.457032 -0.703125,0.861329 -0.386719,0.404296 -0.84375,0.667968 -0.439453,0.28125 -0.931641,0.28125 -0.544922,0 -0.914062,-0.316406 -0.351563,-0.298828 -0.5625,-0.738282 -0.210938,-0.457031 -0.298829,-0.966796 -0.08789,-0.527344 -0.08789,-0.949219 0,-1.335938 0.5625,-2.5488279 0.5625,-1.2304687 1.511719,-2.1621094 0.28125,-0.28125 0.65039,-0.5625 0.369141,-0.2988281 0.773438,-0.5273437 0.421875,-0.2460938 0.84375,-0.3867188 0.439453,-0.1582031 0.84375,-0.1582031 0.509765,0 0.808593,0.3515625 0.316407,0.3339844 0.316407,0.84375 z"
         id="path4151"
         inkscape:connector-curvature="0"
         style="fill:#ff8200;fill-opacity:1"
         sodipodi:insensitive="true" />
    </g>
    <path
       style="fill:none;fill-rule:evenodd;stroke:#000000;stroke-width:1px;stroke-linecap:butt;stroke-linejoin:miter;stroke-opacity:1"
       d="m 648.09779,-831.60816 c -76.53869,18.36928 -205.73853,10.89845 -268.53297,65.74893 -74.37623,64.96707 -126.82489,169.89587 -105.80016,274.57193 11.31865,56.35234 62.01624,91.84986 110.96271,77.97333 121.74007,-34.51382 150.127,-182.24769 272.40764,-303.39239 -237.00471,265.26084 -145.16457,391.60702 -271.94759,560.63077 -25.15286,33.53313 -72.91843,58.081943 -116.95794,63.798953 -59.82923,7.76676 -128.85265,-9.965553 -157.93231,-60.120953 -18.12055,-31.25358 -19.548474,-73.8317 -8.0527,-108.08061 20.54775,-61.21709 64.63323,-111.26569 128.03382,-145.37887"
       id="path4153"
       inkscape:connector-curvature="0"
       sodipodi:nodetypes="cssscsssac"
       sodipodi:insensitive="true" />
    <path
       style="fill:none;fill-rule:evenodd;stroke:#000000;stroke-width:1px;stroke-linecap:butt;stroke-linejoin:miter;stroke-opacity:1"
       d="m 750.14509,-668.09593 c -54.23838,89.26316 -92.34534,184.28447 -123.23113,278.73709 62.16342,-252.19733 203.99742,-299.73012 244.50621,-269.93487 13.62062,10.01831 11.7363,37.16495 11.7363,37.16495"
       id="path4157"
       inkscape:connector-curvature="0"
       sodipodi:nodetypes="ccsc"
       sodipodi:insensitive="true" />
    <path
       style="fill:none;fill-rule:evenodd;stroke:#000000;stroke-width:1px;stroke-linecap:butt;stroke-linejoin:miter;stroke-opacity:1"
       d="m 1103.2121,-669.07395 c -144.25153,41.00062 -282.48455,212.72197 -224.94575,258.19857 37.78174,29.86133 142.84695,-15.16876 221.03365,-221.03363 -31.7103,81.81703 -93.7068,203.60697 -57.7035,225.92375 36.0033,22.31678 111.4948,-89.97829 111.4948,-89.97829"
       id="path4159"
       inkscape:connector-curvature="0"
       sodipodi:nodetypes="cscsc" />
    <path
       style="fill:none;fill-rule:evenodd;stroke:#000000;stroke-width:1px;stroke-linecap:butt;stroke-linejoin:miter;stroke-opacity:1"
       d="m 1364.3447,-671.03 c -214.0237,63.56101 -193.6768,262.01953 -135.9454,274.82499 67.8562,15.05125 121.275,-76.28594 121.275,-76.28594"
       id="path4161"
       inkscape:connector-curvature="0"
       sodipodi:nodetypes="csc"
       sodipodi:insensitive="true" />
    <path
       style="fill:none;fill-rule:evenodd;stroke:#000000;stroke-width:1px;stroke-linecap:butt;stroke-linejoin:miter;stroke-opacity:1"
       d="m 1452.367,-527.26035 c 69.8517,-12.75943 165.8802,-82.52147 155.506,-119.31903 -12.5437,-44.49251 -124.6618,-2.49799 -168.5391,69.49161 -56.5501,92.78187 -42.2829,153.12702 5.2089,176.97066 47.4918,23.84364 118.341,-73.35187 118.341,-73.35187"
       id="path4163"
       inkscape:connector-curvature="0"
       sodipodi:nodetypes="csszc"
       sodipodi:insensitive="true" />
  </g>
</svg>
